<?xml version="1.0" encoding="UTF-8"?>
<svg width="40px" height="40px" viewBox="0 0 40 40" version="1.1" xmlns="http://www.w3.org/2000/svg" xmlns:xlink="http://www.w3.org/1999/xlink">
    <!-- Generator: Sketch 41.2 (35397) - http://www.bohemiancoding.com/sketch -->
    <title>chat bubble.4</title>
    <desc>Created with Sketch.</desc>
    <defs></defs>
    <g id="Page-1" stroke="none" stroke-width="1" fill="none" fill-rule="evenodd">
        <g id="chat-bubble.4" fill="#FFFFFF">
            <g id="Group">
                <path d="M11.6666667,12.5 C10.2883333,12.5 9.16666667,13.62 9.16666667,15 C9.16666667,16.3783333 10.2883333,17.5 11.6666667,17.5 C13.045,17.5 14.1666667,16.3783333 14.1666667,15 C14.1666667,13.62 13.045,12.5 11.6666667,12.5 Z M11.6666667,15.8333333 C11.2066667,15.8333333 10.8333333,15.46 10.8333333,15 C10.8333333,14.54 11.2066667,14.1666667 11.6666667,14.1666667 C12.1266667,14.1666667 12.5,14.54 12.5,15 C12.5,15.46 12.1266667,15.8333333 11.6666667,15.8333333 Z" id="Shape"></path>
                <path d="M20,12.5 C18.6216667,12.5 17.5,13.6216667 17.5,15 C17.5,16.3783333 18.6216667,17.5 20,17.5 C21.3783333,17.5 22.5,16.3783333 22.5,15 C22.5,13.62 21.3783333,12.5 20,12.5 Z M20,15.8333333 C19.54,15.8333333 19.1666667,15.46 19.1666667,15 C19.1666667,14.54 19.54,14.1666667 20,14.1666667 C20.46,14.1666667 20.8333333,14.54 20.8333333,15 C20.8333333,15.46 20.46,15.8333333 20,15.8333333 Z" id="Shape"></path>
                <path d="M28.3333333,12.5 C26.955,12.5 25.8333333,13.6216667 25.8333333,15 C25.8333333,16.3783333 26.955,17.5 28.3333333,17.5 C29.7116667,17.5 30.8333333,16.3783333 30.8333333,15 C30.8333333,13.62 29.7116667,12.5 28.3333333,12.5 Z M28.3333333,15.8333333 C27.8733333,15.8333333 27.5,15.46 27.5,15 C27.5,14.54 27.8733333,14.1666667 28.3333333,14.1666667 C28.7933333,14.1666667 29.1666667,14.54 29.1666667,15 C29.1666667,15.46 28.7933333,15.8333333 28.3333333,15.8333333 Z" id="Shape"></path>
                <path d="M33.3333333,0.833333333 L6.66666667,0.833333333 C3.45,0.833333333 0.833333333,3.45 0.833333333,6.66666667 L0.833333333,23.3333333 C0.833333333,26.55 3.45,29.1666667 6.66666667,29.1666667 L10.3183333,29.1666667 L5.92166667,37.96 C5.75,38.305 5.83666667,38.725 6.13333333,38.9716667 C6.28666667,39.1016667 6.47666667,39.1666667 6.66666667,39.1666667 C6.84166667,39.1666667 7.01833333,39.1116667 7.16666667,39.0016667 L20.2783333,29.1683333 L33.3333333,29.1683333 C36.55,29.1683333 39.1666667,26.5516667 39.1666667,23.335 L39.1666667,6.66666667 C39.1666667,3.45 36.55,0.833333333 33.3333333,0.833333333 Z M37.5,23.33 C37.5,25.6266667 35.63,27.4966667 33.3333333,27.4966667 L20,27.4966667 C19.8183333,27.4966667 19.6433333,27.555 19.5,27.6633333 L8.99,35.545 L12.4116667,28.7033333 C12.5416667,28.4466667 12.5266667,28.1383333 12.375,27.8933333 C12.2233333,27.6483333 11.955,27.5 11.6666667,27.5 L6.66666667,27.5 C4.37,27.5 2.5,25.63 2.5,23.3333333 L2.5,6.66666667 C2.5,4.37 4.37,2.5 6.66666667,2.5 L6.66666667,2.49666667 L33.3333333,2.49666667 C35.63,2.49666667 37.5,4.36666667 37.5,6.66333333 L37.5,23.33 Z" id="Shape"></path>
            </g>
        </g>
    </g>
</svg>