<?xml version="1.0" encoding="UTF-8"?>
<svg width="28px" height="40px" viewBox="0 0 28 40" version="1.1" xmlns="http://www.w3.org/2000/svg" xmlns:xlink="http://www.w3.org/1999/xlink">
    <!-- Generator: Sketch 41.2 (35397) - http://www.bohemiancoding.com/sketch -->
    <title>location</title>
    <desc>Created with Sketch.</desc>
    <defs></defs>
    <g id="Page-1" stroke="none" stroke-width="1" fill="none" fill-rule="evenodd">
        <g id="location" fill="#FFFFFF">
            <g id="Group">
                <path d="M13.6888889,18.9230769 C10.1111111,18.9230769 7,16 7,12.3076923 C7,8.61538462 9.95555556,5.69230769 13.6888889,5.69230769 C17.4222222,5.69230769 20.2222222,8.76923077 20.2222222,12.3076923 C20.2222222,15.8461538 17.2666667,18.9230769 13.6888889,18.9230769 Z M13.6888889,7.38461538 C10.8888889,7.38461538 8.55555556,9.69230769 8.55555556,12.4615385 C8.55555556,15.2307692 10.8888889,17.5384615 13.6888889,17.5384615 C16.4888889,17.5384615 18.6666667,15.0769231 18.6666667,12.3076923 C18.6666667,9.53846154 16.3333333,7.38461538 13.6888889,7.38461538 Z" id="Shape"></path>
                <path d="M14,40 C13.6888889,40 13.5333333,39.8461538 13.3777778,39.6923077 C12.7555556,38.7692308 0.777777778,18.7692308 0.777777778,12.3076923 C0.777777778,5.53846154 6.68888889,0 14,0 C21.3111111,0 27.2222222,5.53846154 27.2222222,12.3076923 C27.2222222,18.7692308 15.2444444,38.7692308 14.6222222,39.6923077 C14.4666667,39.8461538 14.3111111,40 14,40 Z M14,1.53846154 C7.62222222,1.53846154 2.33333333,6.30769231 2.33333333,12.3076923 C2.33333333,17.5384615 11.3555556,33.3846154 14,37.6923077 C16.6444444,33.3846154 25.6666667,17.5384615 25.6666667,12.3076923 C25.6666667,6.30769231 20.3777778,1.53846154 14,1.53846154 Z" id="Shape"></path>
            </g>
        </g>
    </g>
</svg>