<?xml version="1.0" encoding="UTF-8"?>
<svg width="35px" height="40px" viewBox="0 0 35 40" version="1.1" xmlns="http://www.w3.org/2000/svg" xmlns:xlink="http://www.w3.org/1999/xlink">
    <!-- Generator: Sketch 41.2 (35397) - http://www.bohemiancoding.com/sketch -->
    <title>bagshop.2</title>
    <desc>Created with Sketch.</desc>
    <defs></defs>
    <g id="Page-1" stroke="none" stroke-width="1" fill="none" fill-rule="evenodd">
        <g id="bagshop.2" fill="#FFFFFF">
            <g id="outlined">
                <g id="Imported-Layers">
                    <path d="M33.7411765,40 L33.7254902,40 L0.784313725,40 C0.569411765,40 0.363921569,39.9121569 0.215686275,39.7560784 C0.0674509804,39.6007843 -0.00941176471,39.3913725 0.00156862745,39.1764706 L1.69019608,5.45098039 C1.71137255,5.03372549 2.05568627,4.70588235 2.47372549,4.70588235 L32.0360784,4.70588235 C32.4541176,4.70588235 32.7984314,5.03372549 32.8196078,5.45098039 L34.5011765,39.0203922 C34.5168627,39.0831373 34.5254902,39.1482353 34.5254902,39.2156863 C34.5254902,39.6486275 34.1741176,40 33.7411765,40 L33.7411765,40 Z M1.60862745,38.4313725 L32.9011765,38.4313725 L31.2901961,6.2745098 L3.21960784,6.2745098 L1.60862745,38.4313725 L1.60862745,38.4313725 Z" id="Fill-70"></path>
                    <path d="M24.3137255,11.7647059 C23.0164706,11.7647059 21.9607843,10.7090196 21.9607843,9.41176471 C21.9607843,8.1145098 23.0164706,7.05882353 24.3137255,7.05882353 C25.6109804,7.05882353 26.6666667,8.1145098 26.6666667,9.41176471 C26.6666667,10.7090196 25.6109804,11.7647059 24.3137255,11.7647059 L24.3137255,11.7647059 Z M24.3137255,8.62745098 C23.8815686,8.62745098 23.5294118,8.97960784 23.5294118,9.41176471 C23.5294118,9.84392157 23.8815686,10.1960784 24.3137255,10.1960784 C24.7458824,10.1960784 25.0980392,9.84392157 25.0980392,9.41176471 C25.0980392,8.97960784 24.7458824,8.62745098 24.3137255,8.62745098 L24.3137255,8.62745098 Z" id="Fill-71"></path>
                    <path d="M10.1960784,11.7647059 C8.89882353,11.7647059 7.84313725,10.7090196 7.84313725,9.41176471 C7.84313725,8.1145098 8.89882353,7.05882353 10.1960784,7.05882353 C11.4933333,7.05882353 12.5490196,8.1145098 12.5490196,9.41176471 C12.5490196,10.7090196 11.4933333,11.7647059 10.1960784,11.7647059 L10.1960784,11.7647059 Z M10.1960784,8.62745098 C9.76392157,8.62745098 9.41176471,8.97960784 9.41176471,9.41176471 C9.41176471,9.84392157 9.76392157,10.1960784 10.1960784,10.1960784 C10.6282353,10.1960784 10.9803922,9.84392157 10.9803922,9.41176471 C10.9803922,8.97960784 10.6282353,8.62745098 10.1960784,8.62745098 L10.1960784,8.62745098 Z" id="Fill-72"></path>
                    <path d="M25.8823529,10.1960784 C25.4494118,10.1960784 25.0980392,9.84470588 25.0980392,9.41176471 C25.0980392,5.08705882 21.5796078,1.56862745 17.254902,1.56862745 C12.9301961,1.56862745 9.41176471,5.08705882 9.41176471,9.41176471 C9.41176471,9.84470588 9.06039216,10.1960784 8.62745098,10.1960784 C8.1945098,10.1960784 7.84313725,9.84470588 7.84313725,9.41176471 C7.84313725,4.22196078 12.065098,0 17.254902,0 C22.4447059,0 26.6666667,4.22196078 26.6666667,9.41176471 C26.6666667,9.84470588 26.3152941,10.1960784 25.8823529,10.1960784" id="Fill-73"></path>
                </g>
            </g>
        </g>
    </g>
</svg>