<?xml version="1.0" encoding="UTF-8"?>
<svg width="35px" height="40px" viewBox="0 0 35 40" version="1.1" xmlns="http://www.w3.org/2000/svg" xmlns:xlink="http://www.w3.org/1999/xlink">
    <!-- Generator: Sketch 41.2 (35397) - http://www.bohemiancoding.com/sketch -->
    <title>user</title>
    <desc>Created with Sketch.</desc>
    <defs></defs>
    <g id="Page-1" stroke="none" stroke-width="1" fill="none" fill-rule="evenodd">
        <g id="user" fill="#FFFFFF">
            <path d="M32.8787879,39.5936139 L1.56565657,39.5936139 C0.626262626,39.5936139 0,39.0014514 0,38.1132075 C0,29.2307692 4.38383838,18.8679245 17.2222222,18.8679245 C30.0606061,18.8679245 34.4444444,29.2307692 34.4444444,38.1132075 C34.4444444,39.0014514 33.8181818,39.5936139 32.8787879,39.5936139 Z M1.18294052,37.656292 L33.2615039,37.656292 C32.9050754,29.2307692 28.2715052,20.8052465 17.2222222,20.8052465 C6.17293927,20.8052465 1.89579748,29.2307692 1.18294052,37.656292 Z" id="Shape"></path>
            <path d="M17.0830527,20.7256894 C11.1335578,20.7256894 6.12345679,15.988389 6.12345679,10.3628447 C6.12345679,4.73730044 11.1335578,0 17.0830527,0 C23.0325477,0 28.0426487,4.73730044 28.0426487,10.3628447 C28.0426487,15.988389 23.0325477,20.7256894 17.0830527,20.7256894 Z M17.0830527,1.85776488 C12.0459365,1.85776488 8.08820228,5.6 8.08820228,10.3628447 C8.08820228,15.1256894 12.0459365,18.8679245 17.0830527,18.8679245 C22.120169,18.8679245 26.0779032,15.1256894 26.0779032,10.3628447 C26.0779032,5.6 22.120169,1.85776488 17.0830527,1.85776488 Z" id="Shape"></path>
        </g>
    </g>
</svg>